<svg width="478" height="95" viewBox="0 0 478 95" fill="none" xmlns="http://www.w3.org/2000/svg">
<path d="M60.9464 58.8693H47.6344L43.4104 73.3333H38.4184L51.6024 28.5333H56.9144L70.5464 73.3333H65.3624L60.9464 58.8693ZM48.8504 54.1333H59.7944L54.2264 35.9573L48.8504 54.1333ZM105.896 42.2933L95.4644 73.3333H91.1124L80.8084 42.2933V73.3333H76.2004V28.5333H80.8084L93.2884 64.9493L105.896 28.5333H110.504V73.3333H105.896V42.2933ZM120.638 28.5333H134.462C137.961 28.5333 140.755 29.4507 142.846 31.2853C144.979 33.12 146.046 35.872 146.046 39.5413C146.046 41.2053 145.769 42.8053 145.214 44.3413C144.659 45.8347 143.529 47.1573 141.822 48.3093L141.758 48.4373V48.5013C143.635 49.3547 145.193 50.7413 146.43 52.6613C147.71 54.5387 148.35 56.992 148.35 60.0213C148.35 63.648 147.326 66.784 145.278 69.4293C143.23 72.032 139.859 73.3333 135.166 73.3333H120.638V28.5333ZM133.502 46.9013C135.891 46.9013 137.726 46.3253 139.006 45.1733C140.329 44.0213 140.99 42.2507 140.99 39.8613C140.99 37.3013 140.307 35.5307 138.942 34.5493C137.577 33.5253 135.721 33.0133 133.374 33.0133H125.246V46.9013H133.502ZM134.142 69.0453C137.001 69.0453 139.219 68.384 140.798 67.0613C142.419 65.7387 143.23 63.328 143.23 59.8293C143.23 57.0133 142.419 54.9013 140.798 53.4933C139.219 52.0853 137.299 51.3813 135.038 51.3813H125.246V69.0453H134.142ZM155.575 28.5333H176.951V32.9493H160.183V46.9013H171.383L169.911 51.3813H160.183V69.1733H176.823V73.3333H155.575V28.5333ZM203.373 58.4853C202.605 58.5707 201.923 58.6133 201.325 58.6133H189.933V73.3333H185.325V28.5333H200.877C204.973 28.5333 208.024 29.8347 210.029 32.4373C212.077 35.04 213.101 38.4533 213.101 42.6773C213.101 45.8773 212.76 48.7147 212.077 51.1893C211.437 53.6213 209.965 55.5627 207.661 57.0133L213.165 73.3333H208.429L203.373 58.4853ZM200.749 54.1333C203.053 54.1333 204.76 53.536 205.869 52.3413C206.979 51.104 207.661 49.7173 207.917 48.1813C208.216 46.6027 208.365 44.832 208.365 42.8693C208.365 36.2987 205.635 33.0133 200.173 33.0133H189.933V54.1333H200.749ZM221.45 28.5333H226.058V69.1733H244.554V73.3333H221.45V28.5333ZM256.439 70.7733C257.676 70.3893 258.679 69.6853 259.447 68.6613C260.215 67.5947 260.599 65.824 260.599 63.3493V55.9253C259.575 56.7787 258.21 57.44 256.503 57.9093C254.839 58.3787 253.175 58.6133 251.511 58.6133C247.031 58.6133 243.468 57.4613 240.823 55.1573C238.178 52.8107 236.855 49.4613 236.855 45.1093V28.5333H241.527V45.3653C241.527 48.224 242.423 50.4 244.215 51.8933C246.007 53.344 248.439 54.0693 251.511 54.0693C253.858 54.0693 255.842 53.6213 257.463 52.7253C259.127 51.7867 260.172 50.4853 260.599 48.8213V28.5333H265.271V63.3493C265.271 69.8347 262.754 73.3973 257.719 74.0373L256.439 70.7733ZM291.638 28.5333H296.246V69.1733H314.742V73.3333H291.638V28.5333ZM345.745 61.4933C345.745 65.8027 344.423 68.9813 341.777 71.0293C339.175 73.0347 336.039 74.0373 332.369 74.0373C330.065 74.0373 327.889 73.632 325.841 72.8213C323.793 71.968 322.108 70.6027 320.785 68.7253C319.505 66.848 318.865 64.4373 318.865 61.4933V40.8853C318.865 36.4907 320.06 33.1627 322.449 30.9013C324.881 28.64 328.209 27.5093 332.433 27.5093C336.657 27.5093 339.921 28.704 342.225 31.0933C344.572 33.4827 345.745 36.768 345.745 40.9493V61.4933ZM341.137 41.2053C341.137 38.2613 340.369 36.0213 338.833 34.4853C337.34 32.9493 335.164 32.1813 332.305 32.1813C329.447 32.1813 327.249 32.9493 325.713 34.4853C324.22 35.9787 323.473 38.2187 323.473 41.2053V61.1093C323.473 63.84 324.284 65.9307 325.905 67.3813C327.527 68.7893 329.66 69.4933 332.305 69.4933C334.951 69.4933 337.084 68.7893 338.705 67.3813C340.327 65.9307 341.137 63.7973 341.137 60.9813V41.2053ZM377.286 71.8613C373.489 73.2693 369.948 73.9733 366.662 73.9733C362.95 73.9733 359.942 72.992 357.638 71.0293C355.334 69.0667 354.182 65.9307 354.182 61.6213V41.0773C354.182 37.8347 354.63 35.3813 355.526 33.7173C356.465 32.0533 357.873 30.6453 359.75 29.4933C361.628 28.4267 363.932 27.8933 366.662 27.8933C369.99 27.8933 372.998 28.5973 375.686 30.0053L374.342 33.6533C372.038 32.8 369.798 32.3733 367.622 32.3733C365.276 32.3733 363.206 32.9707 361.414 34.1653C359.665 35.36 358.79 37.472 358.79 40.5013V61.4933C358.79 64.1813 359.537 66.1867 361.03 67.5093C362.524 68.832 364.636 69.4933 367.366 69.4933C370.012 69.4933 373.02 68.9173 376.39 67.7653L377.286 71.8613ZM399.634 58.8693H386.322L382.098 73.3333H377.106L390.29 28.5333H395.602L409.234 73.3333H404.05L399.634 58.8693ZM387.538 54.1333H398.482L392.914 35.9573L387.538 54.1333ZM414.888 28.5333H419.496V69.1733H437.992V73.3333H414.888V28.5333Z" fill="black"/>
<path d="M1.073 1H477.375" stroke="black"/>
<path d="M0.741211 94H477.043" stroke="black"/>
</svg>
