<?xml version="1.0" standalone="no"?>
<!DOCTYPE svg PUBLIC "-//W3C//DTD SVG 20010904//EN"
 "http://www.w3.org/TR/2001/REC-SVG-20010904/DTD/svg10.dtd">
<svg version="1.0" xmlns="http://www.w3.org/2000/svg"
 width="1079.000000pt" height="557.000000pt" viewBox="0 0 1079.000000 557.000000"
 preserveAspectRatio="xMidYMid meet">
<metadata>
Created by potrace 1.15, written by Peter Selinger 2001-2017
</metadata>
<g transform="translate(0.000000,557.000000) scale(0.100000,-0.100000)"
fill="#000000" stroke="none">
<path d="M3596 5563 c-1 -2 -513 -3 -1137 -3 -624 0 -1306 -3 -1516 -7 l-383
-6 0 -86 c0 -47 3 -131 8 -186 l7 -100 5 167 c3 91 8 169 11 172 3 3 989 8
2192 11 1203 4 2217 7 2254 8 38 0 1210 0 2606 -1 l2537 -2 1 -77 c1 -43 4
-118 8 -168 l8 -90 1 70 c1 39 5 121 9 182 l6 113 -2059 1 c-1132 0 -2620 2
-3307 3 -686 1 -1249 1 -1251 -1z"/>
<path d="M1120 5394 c0 -4 -47 -191 -105 -417 -58 -225 -105 -416 -105 -423 0
-10 14 -14 44 -14 l44 0 27 109 c18 75 32 111 42 113 8 2 67 1 130 -2 l116 -5
26 -105 26 -105 48 -3 c26 -2 47 -2 47 0 -1 2 -49 194 -109 428 l-108 425 -61
3 c-34 2 -62 0 -62 -4z m115 -334 c25 -96 45 -181 45 -187 0 -10 -27 -13 -101
-13 -91 0 -100 2 -95 18 3 9 23 91 46 182 44 180 51 200 56 185 2 -5 24 -89
49 -185z"/>
<path d="M1670 4970 l0 -430 45 0 45 0 0 331 c-1 182 0 333 2 335 3 3 164
-285 260 -463 18 -35 36 -63 39 -63 4 0 74 123 155 273 l149 272 3 -342 2
-343 45 0 45 0 0 430 0 430 -52 0 -53 0 -145 -265 c-79 -146 -147 -265 -150
-265 -3 0 -19 26 -36 58 -17 31 -81 150 -144 265 l-113 207 -49 0 -48 0 0
-430z"/>
<path d="M2660 4970 l0 -430 148 0 c139 0 151 2 200 26 87 43 134 125 134 229
0 80 -44 172 -97 204 l-37 21 30 38 c73 94 67 218 -14 294 -45 42 -75 48 -225
48 l-139 0 0 -430z m275 326 c62 -26 85 -118 45 -183 -22 -37 -35 -41 -147
-45 l-83 -3 0 122 0 123 75 0 c43 0 90 -6 110 -14z m31 -342 c21 -10 45 -34
60 -61 23 -37 26 -53 22 -106 -4 -67 -23 -104 -68 -130 -28 -17 -52 -20 -157
-18 l-73 1 0 165 0 165 91 0 c63 0 101 -5 125 -16z"/>
<path d="M3341 4970 l-1 -430 200 0 200 0 0 50 0 50 -149 0 c-89 0 -151 4
-153 10 -1 5 -2 80 0 165 l3 155 149 0 150 0 0 51 c0 42 -3 50 -17 48 -10 -1
-78 -1 -150 0 l-133 1 0 120 0 120 150 0 150 0 0 45 0 45 -199 0 -200 0 0
-430z"/>
<path d="M3940 4970 l0 -430 45 0 45 0 0 181 0 180 46 -3 47 -3 86 -151 c126
-220 112 -204 176 -204 30 0 55 2 55 5 0 4 -132 222 -191 315 -26 40 -27 46
-13 55 104 64 149 137 148 239 -1 72 -19 118 -65 171 -56 63 -94 75 -246 75
l-133 0 0 -430z m284 317 c83 -55 93 -174 22 -246 -36 -35 -38 -36 -126 -39
l-90 -4 0 157 0 158 84 -5 c56 -3 93 -10 110 -21z"/>
<path d="M4660 4970 l0 -430 195 0 195 0 0 50 0 50 -150 0 -150 0 0 380 0 380
-45 0 -45 0 0 -430z"/>
<path d="M5270 5396 c0 -3 54 -103 120 -224 l120 -218 0 -207 0 -207 45 0 45
0 0 207 0 207 120 218 c66 121 120 221 120 224 0 3 -23 4 -52 2 l-52 -3 -87
-158 c-47 -87 -90 -158 -95 -156 -5 1 -48 72 -95 158 l-85 156 -52 3 c-29 2
-52 1 -52 -2z"/>
<path d="M6500 4970 l1 -430 195 0 194 0 0 50 0 50 -150 0 -150 0 0 380 0 380
-45 0 -46 0 1 -430z"/>
<path d="M7372 5381 c-144 -54 -244 -180 -272 -343 -30 -170 58 -358 207 -445
144 -84 335 -63 459 50 101 92 145 188 146 322 1 135 -38 234 -128 321 -80 79
-148 107 -264 111 -76 3 -106 -1 -148 -16z m257 -102 c81 -36 158 -125 181
-209 33 -124 5 -242 -80 -334 -57 -62 -120 -90 -212 -94 -67 -4 -84 -1 -135
22 -70 32 -126 85 -158 146 -58 114 -49 265 21 357 100 131 245 173 383 112z"/>
<path d="M8391 5380 c-183 -66 -299 -267 -271 -470 15 -105 47 -169 124 -246
73 -73 134 -105 225 -120 l38 -6 -1 48 c-1 47 -2 48 -39 56 -83 17 -169 80
-213 154 -36 61 -45 99 -45 182 1 162 110 292 272 326 24 5 27 11 27 51 1 44
1 45 -31 45 -18 -1 -56 -9 -86 -20z"/>
<path d="M8921 5363 c-5 -21 -53 -209 -106 -418 -53 -209 -98 -386 -100 -392
-3 -9 10 -13 43 -13 l48 0 25 101 c13 55 27 106 31 112 9 14 250 11 258 -4 4
-5 17 -54 30 -109 l24 -100 47 0 47 0 -99 393 c-55 215 -104 409 -110 430
l-10 37 -59 0 -59 0 -10 -37z m118 -290 c25 -98 47 -186 49 -195 4 -16 -6 -18
-98 -18 -93 0 -102 2 -98 18 3 9 24 97 49 195 24 97 46 177 49 177 3 0 25 -80
49 -177z"/>
<path d="M9471 4970 l0 -430 197 2 197 3 0 45 0 45 -152 3 -153 3 0 379 0 380
-45 0 -45 0 1 -430z"/>
<path d="M657 5298 c-4 -46 -7 -275 -7 -510 l0 -428 -22 -1 c-13 -1 -35 -1
-50 0 l-28 1 0 -80 c0 -97 0 -92 -11 -107 -7 -7 -6 -14 1 -18 6 -3 8 -10 6
-14 -3 -4 -5 -70 -4 -147 1 -139 1 -251 -1 -374 0 -36 0 -72 0 -80 0 -8 1 -69
1 -135 0 -66 2 -149 5 -184 4 -47 1 -66 -9 -72 -10 -7 -11 -9 0 -9 10 0 12
-14 7 -62 -8 -73 -8 -65 1 -147 5 -48 3 -65 -7 -72 -10 -6 -11 -9 -1 -9 15 0
15 -243 0 -272 -5 -11 -5 -18 1 -18 15 0 13 -272 -2 -282 -9 -6 -9 -8 1 -8 16
0 17 -121 0 -138 -9 -9 -9 -12 0 -12 8 0 12 -21 12 -65 0 -45 -4 -65 -12 -65
-10 0 -10 -2 0 -9 10 -6 12 -24 7 -72 -3 -35 -5 -102 -5 -149 1 -137 -1 -203
-6 -212 -3 -4 0 -8 6 -8 9 0 10 -17 5 -58 -6 -55 -7 -89 -6 -314 l1 -88 1498
-2 c823 -1 1697 -2 1942 -2 805 1 1807 2 2270 1 2568 -4 3598 -1 3615 13 6 4
93 11 194 14 101 3 187 8 189 11 3 3 -7 5 -22 5 l-27 0 6 93 c4 50 9 777 12
1615 l6 1522 -62 0 -61 0 -1 473 c0 259 -4 481 -8 492 -10 26 -21 -313 -21
-667 l0 -288 -647 -2 c-1305 -3 -8728 4 -8733 8 -2 3 -8 230 -12 506 -4 275
-9 502 -11 504 -2 3 -7 -33 -10 -78z m222 -983 c28 -6 28 -8 27 -68 l-1 -62
-141 -5 c-78 -3 -149 -4 -158 -2 -13 3 -16 17 -16 70 l0 67 130 3 c72 2 143 1
159 -3z m431 -1 l65 -6 0 -59 1 -59 -66 0 c-36 0 -128 -3 -206 -7 -103 -4
-143 -3 -148 6 -4 6 -10 36 -13 66 l-6 54 34 4 c57 7 270 7 339 1z m1466 -60
l1 -61 -212 -1 -212 -2 -7 38 c-12 77 -11 81 42 85 26 2 123 3 217 3 l169 -1
2 -61z m466 56 c2 -5 1 -32 0 -60 l-4 -50 -111 -2 c-232 -4 -296 -3 -302 4
-10 10 -18 85 -12 103 6 13 36 15 216 15 130 0 211 -4 213 -10z m467 -50 l-1
-60 -71 0 c-40 0 -134 -1 -209 -3 -154 -4 -148 -7 -148 74 l0 49 214 0 215 0
0 -60z m467 1 l-1 -61 -212 0 -212 0 -3 28 c-2 15 -1 39 1 54 4 32 -1 31 262
36 l166 4 -1 -61z m465 47 c1 -7 2 -34 2 -60 l2 -48 -212 0 -212 0 -7 35 c-3
19 -3 46 0 60 l6 25 210 0 c161 0 210 -3 211 -12z m459 3 c6 -1 10 -26 10 -56
l0 -55 -167 -1 c-276 -2 -263 -5 -263 68 0 41 1 42 38 45 31 2 350 2 382 -1z
m477 -53 l1 -58 -213 0 -214 0 -3 28 c-2 15 -1 42 1 60 l3 32 212 -2 211 -3 2
-57z m374 53 l95 -1 0 -55 -1 -55 -212 0 -211 0 -7 30 c-4 17 -4 42 -1 58 l7
27 117 -2 c64 0 160 -2 213 -2z m542 -1 c14 0 17 -9 17 -55 l0 -55 -209 0
c-181 0 -210 2 -215 16 -7 18 -8 88 -2 95 2 2 91 3 198 2 106 -2 201 -3 211
-3z m468 1 c14 -1 17 -12 16 -61 l0 -59 -201 5 c-111 3 -207 7 -213 9 -16 5
-18 102 -3 107 8 2 322 1 401 -1z m485 -65 l2 -68 -36 6 c-21 3 -116 6 -213 6
l-176 0 -6 36 c-3 20 -3 49 0 65 l6 29 210 -2 211 -3 2 -69z m464 9 l0 -65
-209 0 -208 0 -7 31 c-3 17 -6 47 -6 65 l0 34 215 0 215 0 0 -65z m470 6 c0
-38 -4 -60 -12 -63 -7 -2 -100 -5 -207 -7 -154 -2 -195 0 -202 10 -5 8 -9 38
-9 67 l0 52 215 0 215 0 0 -59z m467 -1 l-2 -60 -212 0 -212 0 -3 28 c-2 15
-1 42 1 60 l3 32 213 0 213 0 -1 -60z m467 -2 c0 -32 -3 -58 -7 -58 -4 0 -99
0 -211 0 l-204 0 -7 30 c-4 17 -4 44 0 60 l7 30 211 -2 211 -3 0 -57z m468 52
c2 -5 1 -32 0 -60 l-4 -50 -111 -1 c-62 -1 -154 -2 -205 -3 -107 -1 -112 2
-112 77 l0 47 214 0 c133 0 216 -4 218 -10z m398 -158 c0 -86 2 -804 5 -1594
l5 -1438 -90 0 c-50 0 -90 3 -91 8 0 4 -1 33 -2 65 l-2 57 45 1 c25 0 63 4 85
8 37 8 35 9 -30 11 -38 1 -74 3 -80 5 -5 1 -43 3 -82 3 l-73 2 0 61 0 61 68
-2 c195 -8 313 9 149 20 l-72 5 -3 57 -3 57 43 5 c24 3 61 7 83 9 33 3 30 4
-17 7 -32 1 -62 4 -68 5 -5 1 -46 3 -89 4 l-79 1 -3 43 c-7 75 -4 79 54 77
123 -4 227 1 227 10 0 5 -34 10 -76 12 l-76 3 -2 58 c-1 39 3 57 12 58 6 1 17
3 22 4 6 1 38 3 72 4 34 0 59 3 57 5 -7 6 -118 15 -206 15 l-81 1 -4 60 -3 60
115 1 c63 1 121 1 128 0 6 -1 20 3 30 8 12 8 -3 10 -60 11 -45 0 -78 4 -79 10
0 6 0 30 0 55 0 25 0 50 0 55 1 6 37 11 84 11 74 1 77 2 37 10 -25 4 -93 8
-152 8 l-108 1 0 60 0 60 113 1 c61 0 125 2 141 4 55 7 39 15 -33 15 -80 0
-77 -2 -84 78 l-4 52 86 1 c122 1 64 17 -69 18 -150 2 -150 2 -150 67 l0 54
45 0 c41 0 45 -2 45 -25 0 -24 2 -25 75 -25 73 0 75 1 75 25 0 19 7 26 33 34
l32 9 -32 1 -33 1 0 65 0 65 33 1 32 1 -32 10 c-18 6 -34 18 -34 27 -1 9 -2
36 -3 61 l-1 45 40 4 40 5 -40 5 c-42 6 -40 4 -44 74 -1 16 -7 17 -45 12 -38
-6 -44 -4 -49 13 -2 12 -2 23 1 26 3 3 36 6 74 6 39 0 68 4 68 10 0 6 -33 10
-79 10 -43 0 -106 3 -140 6 l-61 7 0 53 0 54 48 1 c26 1 65 2 87 4 22 1 69 2
104 3 35 1 62 4 60 6 -3 3 -109 14 -151 16 -5 0 -8 27 -8 60 l0 60 69 0 c108
0 98 20 -11 22 -51 1 -104 3 -118 4 -14 1 -37 3 -52 3 -27 1 -28 3 -28 56 l0
55 43 2 c23 0 47 2 52 3 6 2 55 3 109 4 55 0 97 3 95 5 -4 4 -96 14 -141 15
-13 1 -17 13 -20 61 l-3 60 45 1 c25 1 59 0 76 -1 18 -1 35 4 39 10 3 6 3 10
-2 8 -4 -1 -72 2 -150 6 -136 7 -143 9 -143 29 0 13 -4 17 -9 11 -14 -14 -21
-475 -23 -1551 l-3 -973 -133 0 -134 0 7 98 c4 53 8 334 9 624 l1 528 75 1
c41 1 79 1 84 0 9 -2 2 112 -14 214 -5 33 -21 139 -35 235 -42 287 -67 434
-77 450 -16 26 2 -172 42 -460 21 -151 42 -303 46 -337 l7 -63 -64 -2 c-35 0
-143 -3 -239 -4 -96 -2 -179 -4 -185 -5 -5 -1 -75 1 -155 5 -79 3 -343 6 -585
6 l-441 0 12 108 c7 59 26 195 43 302 16 107 35 242 42 300 6 58 15 113 18
123 7 18 34 19 572 22 569 4 781 9 854 22 l40 7 -55 6 c-48 5 -829 6 -1286 2
l-161 -2 -17 -132 c-10 -73 -28 -205 -41 -293 -13 -88 -31 -223 -40 -300 -9
-77 -18 -152 -20 -166 -4 -23 -1 -27 26 -33 17 -3 55 -6 83 -6 l51 0 3 -625 3
-625 -141 0 -142 0 6 107 c8 138 12 848 8 1338 -2 209 -1 531 2 715 4 184 7
342 6 351 0 14 86 17 898 24 932 8 1060 10 1070 19 3 3 -8 6 -25 6 -22 0 -32
6 -36 19 -4 16 4 19 71 25 41 3 123 7 181 7 108 1 102 15 -6 18 -51 1 -53 2
-54 29 -2 37 2 86 7 91 2 2 25 3 51 3 27 -1 62 2 78 7 28 9 28 9 -15 11 -160
4 -306 14 -310 21 -3 4 -4 28 -2 52 5 57 4 57 197 57 140 1 178 14 55 19 -30
1 -57 4 -59 7 -6 5 -1 107 5 113 2 3 22 5 44 6 22 1 57 3 78 5 60 5 -75 17
-205 19 l-113 1 0 59 0 60 48 3 c26 2 107 2 180 0 l132 -3 0 -157z m-8339 103
c-1 -27 -5 -52 -7 -54 -2 -2 -96 -6 -207 -9 l-204 -5 -6 24 c-4 13 -7 41 -7
62 l0 37 217 -2 217 -3 -3 -50z m466 -2 l1 -58 -212 0 -211 0 -3 58 -3 57 214
0 214 0 0 -57z m2562 -97 c6 -4 11 -27 11 -51 0 -42 -2 -44 -32 -50 -18 -3
-114 -5 -212 -3 l-179 3 -2 52 -2 52 131 3 c176 4 272 2 285 -6z m469 -1 c6
-5 5 -86 -1 -91 -5 -5 -232 -8 -377 -5 l-45 1 1 47 c1 46 3 48 35 54 34 5 381
1 387 -6z m3243 -28 c2 -18 3 -42 1 -54 l-3 -23 -213 0 -212 0 1 53 0 52 110
5 c61 3 156 4 211 2 l102 -3 3 -32z m-7872 18 c2 -3 5 -29 5 -57 l1 -53 -69
-3 c-60 -3 -68 -1 -62 13 3 9 6 39 6 67 l0 51 57 -7 c31 -4 59 -9 62 -11z
m929 -42 c2 -39 -1 -53 -10 -53 -7 0 -103 -1 -213 -2 l-200 -3 0 52 0 52 40 3
c22 2 117 3 210 3 l170 0 3 -52z m458 45 c2 -2 5 -25 7 -51 3 -46 2 -47 -25
-47 -22 0 -28 5 -28 21 0 13 -5 19 -13 16 -8 -3 -35 -1 -60 4 -55 10 -77 4
-77 -22 0 -17 -9 -19 -108 -19 -60 0 -111 2 -113 4 -2 3 -3 25 -1 50 3 36 8
46 25 50 24 5 387 -1 393 -6z m926 -2 c4 -6 8 -30 8 -53 l0 -43 -213 0 -213 0
0 50 c1 59 -17 54 241 56 118 1 172 -2 177 -10z m466 -43 l3 -53 -209 0 c-115
0 -211 2 -213 4 -2 2 -2 27 -1 55 l4 51 206 -2 207 -3 3 -52z m467 16 c4 -22
3 -45 -1 -49 -10 -9 -408 -25 -421 -17 -4 3 -6 28 -5 56 l4 51 208 0 208 0 7
-41z m459 19 c3 -13 6 -35 6 -50 0 -25 -3 -28 -35 -28 -20 0 -34 5 -32 11 1 6
-19 13 -48 16 -93 9 -105 8 -105 -14 0 -16 -10 -18 -103 -15 l-103 3 -1 50 -1
49 208 0 c207 0 208 0 214 -22z m1390 -13 c14 -72 20 -70 -214 -70 l-210 -1 0
53 0 53 209 0 209 0 6 -35z m464 -24 l3 -53 -213 5 -213 6 -2 51 -1 50 211 -2
212 -3 3 -54z m462 4 l0 -55 -49 0 c-38 0 -50 4 -53 16 -2 12 -16 18 -43 21
-22 2 -52 5 -66 7 -31 4 -43 -2 -52 -27 -6 -15 -17 -17 -84 -15 l-77 3 0 53
-1 52 212 0 213 0 0 -55z m461 30 c1 -14 2 -38 3 -55 l1 -30 -211 0 c-116 0
-213 2 -215 4 -2 2 -2 27 -1 55 l4 51 209 0 209 0 1 -25z m463 3 c3 -13 6 -37
6 -54 l0 -31 -81 -7 c-44 -4 -141 -4 -214 0 l-133 7 0 53 1 54 207 0 c207 0
208 0 214 -22z m460 6 c3 -9 6 -33 6 -55 0 -43 6 -41 -100 -41 -22 0 -104 1
-183 1 l-143 1 0 55 0 55 207 0 c179 0 208 -2 213 -16z m928 -6 c1 -13 2 -38
3 -55 l1 -33 -87 0 c-80 0 -87 2 -92 21 -3 12 -10 18 -15 15 -5 -3 -33 -1 -63
3 -62 10 -79 6 -79 -20 0 -16 -7 -19 -43 -19 -24 0 -46 2 -48 4 -2 2 -2 27 -1
55 l4 51 209 0 209 0 2 -22z m462 0 c3 -13 6 -38 6 -55 l0 -33 -214 0 -213 0
0 55 0 55 207 0 c207 0 208 0 214 -22z m465 -39 l2 -60 -53 5 c-29 3 -125 5
-213 5 l-161 1 0 55 0 55 212 0 211 0 2 -61z m-8793 27 c3 -13 4 -37 2 -52
l-3 -29 -212 -3 -211 -2 1 55 1 55 208 0 208 0 6 -24z m1388 2 c3 -13 6 -35 6
-50 l0 -28 -214 0 -215 0 1 50 0 50 208 0 c207 0 208 0 214 -22z m1610 -146
c3 -15 4 -36 2 -47 -3 -19 -11 -20 -217 -20 l-214 0 0 45 c0 44 1 45 35 50 19
3 115 4 212 2 l177 -3 5 -27z m930 22 c3 -9 6 -33 6 -54 l0 -38 -176 -4 c-96
-2 -193 -2 -215 0 l-39 4 0 47 c0 26 3 51 7 54 3 4 97 7 209 7 175 0 203 -2
208 -16z m468 -8 c4 -6 8 -28 8 -48 l0 -38 -215 0 -215 0 0 39 c0 22 -3 46 -6
54 -5 13 21 15 208 10 140 -4 216 -10 220 -17z m456 14 c8 0 12 -17 12 -52 l0
-53 -215 3 -215 3 3 47 c1 26 5 49 9 52 5 4 197 4 406 0z m436 -6 c9 -8 16
-26 16 -40 0 -15 6 -24 15 -24 8 0 15 -7 15 -15 0 -13 -30 -15 -214 -15 l-214
0 1 55 1 55 182 0 c153 0 185 -3 198 -16z m978 -6 c4 -7 6 -33 5 -58 l-3 -44
-209 3 c-116 1 -212 5 -215 8 -3 3 -5 26 -5 51 l0 47 65 5 c122 9 353 2 362
-12z m461 12 c4 0 7 -25 7 -55 l0 -55 -215 0 -215 0 3 55 2 54 130 3 c104 2
236 2 288 -2z m471 -6 c3 -9 6 -33 6 -54 0 -31 -4 -39 -22 -44 -13 -3 -110 -6
-215 -6 l-193 0 0 54 0 55 38 4 c20 2 114 4 208 5 149 2 173 0 178 -14z m328
6 c4 0 8 -15 10 -32 l3 -33 65 1 c58 2 66 0 67 -17 1 -10 -4 -19 -10 -20 -14
0 -409 0 -418 1 -3 0 -5 25 -5 56 l1 56 140 -6 c77 -3 143 -6 147 -6z m1064
-4 c9 -4 14 -22 14 -53 l0 -48 -203 1 c-111 0 -208 1 -214 2 -9 1 -13 20 -13
51 0 47 2 50 28 53 42 5 373 0 388 -6z m-8862 -12 c11 -28 6 -94 -6 -99 -7 -2
-82 -5 -165 -7 l-153 -3 0 62 0 63 159 0 c136 0 160 -2 165 -16z m468 -30 c2
-25 1 -49 -2 -54 -3 -5 -100 -10 -215 -12 l-210 -3 0 50 c0 28 1 53 3 58 2 4
97 7 212 7 l208 0 4 -46z m468 -9 l0 -55 -215 0 -215 0 0 55 0 55 215 0 215 0
0 -55z m60 19 l0 -37 66 6 c69 5 84 12 88 43 3 17 14 19 121 22 133 3 135 2
135 -65 l0 -43 -214 0 c-162 0 -215 3 -218 13 -7 20 3 97 13 97 5 0 9 -16 9
-36z m873 14 c2 -13 4 -36 3 -53 l-1 -30 -219 -3 -219 -2 7 37 c3 21 6 46 6
56 0 16 17 17 209 17 208 0 209 0 214 -22z m467 -26 l0 -49 -157 -6 c-87 -4
-184 -7 -215 -7 l-58 0 3 55 2 55 213 0 212 0 0 -48z m468 -4 l3 -48 -143 0
c-79 -1 -176 -3 -215 -7 l-73 -5 0 56 0 56 213 -2 212 -3 3 -47z m932 2 l0
-50 -215 0 c-175 0 -215 3 -215 14 0 9 19 15 60 19 66 6 90 19 90 48 0 18 10
19 140 19 l140 0 0 -50z m2335 -5 l0 -50 -210 4 c-115 2 -214 7 -219 12 -5 4
3 13 20 20 52 20 59 26 62 48 3 21 6 21 175 19 l172 -3 0 -50z m2335 5 l0 -50
-215 0 -214 0 2 50 2 50 213 0 212 0 0 -50z m-3975 -94 c6 -2 8 -26 7 -55 l-4
-51 -206 3 -207 3 -3 52 -3 51 33 3 c40 4 369 -1 383 -6z m-4644 -5 c25 -1 26
-3 26 -61 l0 -60 -69 0 -68 0 0 66 0 66 43 -6 c23 -3 54 -5 68 -5z m944 -3 c6
-3 9 -28 7 -55 l-4 -48 -209 -1 c-185 -1 -209 1 -210 15 -1 9 -2 28 -3 43 -4
41 4 47 69 50 108 5 340 3 350 -4z m411 2 l60 0 0 -50 -1 -50 -65 -1 c-76 -1
-129 -1 -262 0 l-98 1 0 48 c0 27 2 51 4 53 2 2 71 3 153 2 81 -1 175 -2 209
-3z m972 0 c8 0 12 -17 12 -50 l0 -50 -137 -1 c-156 -1 -277 1 -280 5 -1 1 -4
22 -5 47 l-3 44 80 5 c64 4 187 4 333 0z m937 -41 l0 -46 -202 -7 c-112 -4
-207 -4 -213 -1 -11 7 -14 88 -3 99 4 3 99 5 212 4 l206 -3 0 -46z m461 -7 l2
-53 -204 5 c-112 2 -208 7 -214 11 -11 7 -14 78 -3 89 4 3 99 5 212 4 l206 -3
1 -53z m464 3 l0 -55 -210 0 c-193 0 -210 1 -211 18 -2 17 -1 85 0 90 1 1 96
2 211 2 l210 0 0 -55z m927 0 l-2 -55 -210 2 -210 3 -3 53 -3 52 215 0 215 0
-2 -55z m463 0 l0 -55 -122 1 c-68 1 -163 4 -213 8 l-90 6 -3 33 c-6 64 -13
62 218 62 l210 0 0 -55z m460 0 l0 -55 -210 0 c-230 0 -212 -5 -212 55 0 60
-18 55 212 55 l210 0 0 -55z m465 -2 l0 -52 -69 -3 c-38 -2 -133 -1 -210 2
l-141 5 -3 53 -3 52 213 -2 213 -3 0 -52z m462 3 l-2 -55 -70 -6 c-38 -4 -130
-5 -203 -2 -150 4 -152 5 -152 75 l0 42 214 0 215 0 -2 -54z m461 -2 l-3 -55
-204 0 c-112 0 -206 2 -208 5 -7 7 -13 87 -7 97 3 5 100 9 215 9 l210 0 -3
-56z m462 1 l0 -55 -210 0 -210 0 0 55 0 55 210 0 210 0 0 -55z m465 -3 l0
-52 -210 2 -210 3 -3 53 -3 52 213 -2 213 -3 0 -53z m462 3 l-1 -55 -207 0
c-230 0 -219 -4 -219 71 l0 39 214 0 214 0 -1 -55z m465 45 c2 -5 1 -32 0 -59
l-4 -50 -206 6 c-114 3 -209 7 -211 9 -6 5 -8 86 -3 97 5 11 420 9 424 -3z
m-8793 -55 l0 -55 -52 -1 c-146 -1 -360 1 -364 4 -2 3 -6 27 -10 56 l-6 51
216 0 216 0 0 -55z m1388 5 c-2 -59 24 -53 -231 -51 -197 1 -196 0 -196 64 l0
37 214 0 214 0 -1 -50z m925 0 l3 -50 -212 0 -213 0 0 50 0 50 209 0 209 0 4
-50z m1612 -96 c4 -9 5 -18 4 -20 -4 -4 -106 -6 -275 -5 -125 1 -153 4 -153
15 0 8 6 16 13 19 6 2 100 5 208 6 175 1 197 0 203 -15z m468 -7 c10 -16 0
-27 -23 -27 -14 0 -19 -7 -19 -30 0 -32 0 -32 -95 -32 -196 0 -205 1 -206 25
-4 57 -17 -124 -19 -258 -1 -82 -4 -166 -5 -185 -2 -19 -3 -495 -4 -1057 l-1
-1023 -130 0 -129 0 7 67 c4 38 7 319 7 625 l0 558 82 0 c45 0 84 3 87 8 12
20 -116 876 -135 896 -17 19 3 -178 60 -584 21 -151 37 -276 36 -278 -2 -3
-470 -14 -490 -12 -5 1 -273 4 -594 7 l-584 5 7 71 c4 40 20 159 37 267 16
107 39 264 50 349 11 85 21 156 23 158 2 2 253 6 557 8 578 4 849 12 883 24
13 5 -3 10 -50 14 -111 9 -1414 1 -1423 -9 -5 -5 -16 -70 -26 -144 -9 -74 -27
-207 -40 -295 -34 -236 -59 -464 -52 -471 4 -4 40 -9 82 -12 l75 -5 0 -411 c1
-226 1 -507 1 -624 0 -118 -2 -216 -4 -219 -3 -2 -62 -1 -132 3 l-126 7 6 111
c7 132 11 817 7 1356 -2 352 5 1051 11 1055 1 2 398 6 882 9 826 7 1043 11
1054 22 2 2 -17 4 -42 4 -43 0 -47 2 -47 24 l0 23 208 -5 c131 -3 209 -8 214
-15z m846 17 c67 -5 92 -11 92 -20 0 -10 -16 -14 -57 -14 -32 -1 -127 -2 -211
-3 -84 -2 -156 1 -159 6 -2 4 -2 14 1 22 4 12 30 15 124 15 65 0 160 -3 210
-6z m1953 -6 c25 -38 15 -40 -158 -34 -93 3 -189 6 -215 6 -35 0 -48 4 -48 14
0 8 5 16 11 18 6 2 99 5 206 6 156 3 197 1 204 -10z m-7503 -4 c31 -6 31 -7
25 -58 -3 -28 -6 -52 -7 -52 -1 -1 -70 -4 -153 -7 l-153 -5 0 64 0 64 129 0
c71 0 142 -3 159 -6z m1992 -220 c0 -369 12 -2302 14 -2337 l2 -37 -144 0
-145 0 6 127 c4 71 7 356 7 636 l0 507 86 0 86 0 -7 63 c-17 160 -112 789
-125 819 -7 18 -9 9 -9 -38 -1 -62 4 -102 64 -542 20 -145 35 -265 33 -267 -6
-6 -547 -7 -1058 -1 -289 4 -544 6 -568 6 l-42 0 5 63 c4 34 17 127 30 207 25
148 58 387 70 496 4 33 10 65 13 71 5 7 216 12 657 17 358 3 683 9 723 12 193
18 11 24 -672 24 l-744 0 -6 -32 c-3 -18 -12 -87 -21 -153 -8 -66 -26 -196
-40 -290 -28 -199 -55 -413 -55 -437 0 -16 10 -18 80 -18 l80 0 0 -297 c0
-164 3 -450 6 -635 l6 -338 -126 0 -126 0 0 38 c-1 55 -1 2476 -1 2482 1 3
433 7 961 9 l960 3 0 -158z m398 -1735 l-3 -631 -170 2 c-93 0 -170 2 -171 3
-1 1 -5 566 -8 1254 l-7 1253 178 2 178 3 3 -627 c1 -346 1 -912 0 -1259z
m4212 1734 c0 -87 3 -656 6 -1265 l6 -1108 -137 0 c-127 0 -137 1 -130 18 5 9
10 283 12 607 2 325 5 598 6 609 2 16 12 19 79 20 42 0 79 3 82 6 7 8 -24 240
-79 594 -41 266 -49 307 -58 295 -7 -8 14 -246 28 -324 7 -44 17 -105 20 -135
4 -30 17 -131 30 -225 12 -93 21 -171 20 -173 -5 -5 -573 -7 -1144 -4 l-524 2
7 73 c4 39 18 140 31 222 23 143 50 330 59 405 2 19 7 61 11 93 l7 57 92 1
c50 1 307 3 571 4 475 3 668 9 755 22 l45 7 -60 6 c-54 5 -848 6 -1272 2 -160
-2 -163 -2 -168 -24 -3 -13 -18 -124 -35 -248 -16 -124 -36 -270 -44 -325 -27
-193 -39 -315 -32 -323 4 -3 41 -8 82 -10 l74 -4 2 -542 c2 -517 2 -583 -1
-668 l-1 -38 -120 0 -119 0 1 1260 1 1259 121 3 c66 2 493 4 949 6 l827 3 0
-158z m400 -1103 l0 -1260 -175 0 -175 0 0 33 c1 76 -11 2329 -11 2335 -1 4
-1 37 0 74 l1 68 173 3 c94 1 175 4 179 5 4 1 8 -565 8 -1258z m-7160 1174 c2
-3 4 -28 5 -57 l0 -52 -67 -3 -68 -3 0 63 0 64 62 -4 c35 -2 65 -6 68 -8z
m4820 -39 l0 -55 -75 0 -75 0 0 55 0 55 75 0 75 0 0 -55z m-4639 18 c1 -30 -2
-77 -5 -80 -1 -1 -32 -5 -68 -8 l-66 -5 1 60 0 60 69 0 c67 0 68 0 69 -27z
m-18 -121 c13 -3 17 -15 17 -58 l0 -54 -77 0 c-43 -1 -113 -3 -155 -6 l-78 -6
0 67 0 67 138 -3 c75 -2 145 -5 155 -7z m4657 -41 l0 -49 -42 -5 c-24 -3 -56
-4 -73 -2 -16 2 -62 4 -102 4 l-71 1 -4 50 -3 50 148 0 147 0 0 -49z m-4813
-162 l1 -59 -69 0 -69 0 0 58 c0 32 2 61 4 63 2 2 33 3 69 1 l64 -4 0 -59z
m4811 13 l3 -53 -73 3 -73 3 -3 47 c-3 52 -2 53 93 53 l50 0 3 -53z m-4634 17
c14 -73 12 -76 -60 -84 -36 -4 -67 -5 -69 -3 -3 2 -7 30 -11 61 l-7 57 70 0
71 0 6 -31z m-3 -131 c11 -16 12 -85 2 -91 -5 -3 -77 -8 -160 -11 l-153 -7 0
66 0 67 151 -5 c111 -4 154 -9 160 -19z m4639 -27 c0 -47 -1 -49 -32 -55 -18
-4 -84 -3 -145 0 l-113 7 0 48 0 49 145 0 145 0 0 -49z m-4870 -562 c0 -17 8
-19 74 -19 66 0 75 2 81 20 5 15 15 20 41 20 l34 0 0 -55 c0 -46 -3 -55 -17
-55 -10 0 -77 -3 -150 -6 l-131 -6 -4 61 c-3 65 0 69 44 63 19 -3 28 -10 28
-23z m4650 6 c0 -24 2 -25 75 -25 73 0 75 1 75 25 0 22 4 25 35 25 l35 0 0
-49 c0 -35 -4 -51 -16 -55 -20 -8 -222 -8 -251 0 -20 6 -23 13 -23 55 l0 49
35 0 c31 0 35 -3 35 -25z m-4596 -147 c3 -13 6 -40 6 -60 0 -36 -1 -38 -34
-38 -18 0 -48 -3 -65 -6 l-31 -6 0 66 0 66 59 0 c52 0 59 -2 65 -22z m179 -29
c4 -29 4 -56 1 -60 -3 -5 -36 -9 -74 -9 l-68 0 1 60 0 60 67 0 67 0 6 -51z
m4637 1 l0 -50 -35 -1 c-118 -4 -115 -6 -115 51 l0 50 75 0 75 0 0 -50z
m-3377 10 c5 -21 4 -21 -261 -14 -147 3 -269 8 -271 9 -1 2 0 8 3 14 4 6 103
10 265 10 253 1 259 1 264 -19z m417 -9 c0 -28 -1 -29 -36 -21 -20 5 -103 8
-185 7 -118 -2 -150 0 -154 11 -3 8 -3 18 1 23 3 5 88 9 190 9 l184 0 0 -29z
m4210 -6 c0 -13 -39 -15 -265 -15 -223 0 -265 2 -265 14 0 8 7 16 17 18 9 2
128 2 265 0 210 -2 248 -5 248 -17z m-2270 1 c0 -8 -4 -16 -10 -18 -5 -1 -125
-2 -265 0 -216 2 -255 5 -255 17 0 13 39 15 265 15 222 0 265 -2 265 -14z
m413 -8 c-4 -23 -5 -23 -189 -23 l-184 0 0 23 0 22 189 0 188 0 -4 -22z m2267
-4 c0 -22 -3 -25 -22 -20 -13 3 -96 6 -185 6 -156 0 -163 1 -163 20 0 19 7 20
185 20 l185 0 0 -26z m1950 6 c0 -19 -5 -20 -77 -15 -43 2 -162 5 -265 6 -154
1 -188 3 -188 15 0 12 44 14 265 14 259 0 265 0 265 -20z m410 -2 l0 -23 -185
0 -185 0 0 23 0 22 185 0 185 0 0 -22z m-7965 -40 c6 -6 8 -869 2 -874 -1 -1
-82 -4 -181 -5 l-178 -4 -5 447 -5 447 181 -3 c99 -1 183 -5 186 -8z m523 4
l52 -2 0 -445 0 -445 -37 4 c-21 3 -140 6 -265 8 -208 3 -227 5 -232 21 -2 10
-3 84 -2 165 2 81 4 271 5 423 l1 276 213 -2 c116 -1 236 -3 265 -3z m455
-415 c-2 -227 -3 -428 -3 -447 l0 -35 -82 6 c-46 4 -126 4 -179 2 -82 -4 -97
-3 -102 11 -4 9 -4 210 0 446 l6 429 56 3 c31 2 113 2 182 0 l126 -3 -4 -412z
m6572 391 c4 -4 8 -203 9 -442 l1 -435 -265 6 c-146 3 -267 7 -269 9 -4 4 -4
155 -1 561 l3 312 99 3 c134 4 415 -5 423 -14z m-5195 -20 c0 -18 1 -216 2
-440 3 -358 1 -408 -12 -408 -8 -1 -90 -2 -182 -4 l-168 -3 0 443 0 444 180 0
180 0 0 -32z m571 20 c1 -7 2 -275 4 -595 l2 -583 -263 0 -264 0 0 173 c0 94
-3 358 -6 585 -2 227 -2 417 1 422 10 16 525 13 526 -2z m406 -1 c4 -5 5 -92
4 -467 l-1 -415 -186 0 -185 0 5 390 c3 215 5 413 5 442 1 45 4 52 24 56 19 4
330 -2 334 -6z m1294 -4 c0 -10 2 -208 3 -440 3 -385 2 -423 -13 -423 -9 -1
-91 -2 -183 -4 l-168 -3 0 443 0 444 180 0 c165 0 180 -2 181 -17z m572 -60
c4 -43 6 -311 6 -595 l0 -518 -265 0 -264 0 0 273 c-1 149 -3 413 -5 586 -2
173 -2 318 1 322 3 5 121 9 264 9 l258 0 5 -77z m375 67 l32 0 0 -443 0 -443
-186 1 -186 0 6 340 c3 187 6 386 6 442 l0 102 28 4 c15 2 81 2 148 0 66 -1
135 -3 152 -3z m1413 -92 c1 -57 2 -255 3 -440 1 -332 1 -338 -19 -338 -11 0
-93 -2 -182 -4 l-163 -4 0 194 c0 107 0 284 0 394 0 110 0 223 0 250 l0 50
180 0 180 0 1 -102z m979 -348 l0 -445 -184 0 c-215 0 -192 -20 -190 160 1 66
2 256 4 422 3 299 3 302 24 306 11 2 94 3 183 3 l163 -1 0 -445z m-8671 407
c10 -1 15 -17 15 -54 1 -29 1 -53 1 -53 0 0 -69 -3 -152 -7 l-153 -6 0 60 c0
33 2 62 4 64 4 4 256 1 285 -4z m4649 -39 l-3 -53 -142 -3 -143 -3 0 56 0 55
146 0 145 0 -3 -52z m-4816 -115 c6 -70 6 -103 0 -104 -4 0 -33 -2 -64 -5
l-58 -6 0 66 0 66 60 0 c50 0 60 -3 62 -17z m4818 -33 c0 -48 -1 -50 -27 -51
-31 -1 -91 -1 -110 0 -9 1 -13 18 -13 51 l0 50 75 0 75 0 0 -50z m-4632 -17
l3 -53 -75 0 -76 0 3 55 2 56 70 -3 70 -3 3 -52z m2 -137 c0 -65 4 -63 -182
-65 l-128 -2 0 60 c0 71 -11 67 178 63 l132 -3 0 -53z m4632 47 c2 -10 1 -34
0 -55 l-4 -38 -144 0 -144 0 0 55 0 55 144 0 c128 0 145 -2 148 -17z m-4817
-188 c4 -31 5 -58 2 -61 -3 -3 -33 -8 -66 -11 l-61 -6 0 67 0 66 59 0 60 0 6
-55z m4825 6 l0 -48 -55 -7 c-89 -10 -103 -3 -107 55 l-3 49 83 0 82 0 0 -49z
m-4640 -16 l0 -55 -74 0 -73 0 1 55 0 55 73 0 73 0 0 -55z m4638 -130 l-3 -50
-147 -3 -148 -3 0 54 0 54 150 -1 151 -1 -3 -50z m-4638 -9 l0 -54 -42 -6
c-24 -3 -92 -6 -153 -7 l-110 -2 -3 62 -3 61 156 0 155 0 0 -54z m-185 -146
c1 -30 -4 -58 -10 -62 -5 -4 -33 -8 -61 -8 l-52 0 -3 43 c-8 85 -5 88 64 85
l62 -3 0 -55z m186 38 c2 -23 2 -41 0 -73 -1 -24 -3 -25 -70 -25 -76 0 -81 5
-81 77 0 36 7 38 97 38 43 0 53 -3 54 -17z m4639 -27 c0 -56 -4 -59 -96 -57
l-59 1 -3 53 -3 52 80 0 81 0 0 -49z m-4032 -100 l82 -1 0 -130 0 -130 -127
-1 c-120 -1 -226 1 -230 4 -3 3 -5 92 -4 174 l1 82 38 3 c20 2 64 2 97 1 33
-1 97 -2 143 -2z m510 1 l142 -2 0 -129 0 -129 -167 -6 c-93 -4 -206 -5 -253
-2 -47 3 -93 6 -102 6 -17 0 -17 11 -12 128 3 70 10 129 14 132 9 5 120 6 378
2z m3415 -1 l108 -1 -3 -50 -3 -50 -147 0 -148 0 0 55 0 55 43 -4 c23 -2 91
-5 150 -5z m-4533 -55 c0 -38 -4 -56 -15 -59 -11 -5 -221 -10 -282 -8 -9 1
-13 20 -13 61 l0 60 155 0 155 0 0 -54z m1669 -78 l2 -133 -68 2 c-37 1 -124
2 -192 2 l-123 1 6 53 c3 28 6 87 6 130 l0 77 184 0 183 0 2 -132z m1375 45
c3 -42 6 -102 6 -135 l0 -58 -182 2 -183 3 -3 133 -3 132 179 0 179 0 7 -77z
m973 64 c0 -1 3 -59 5 -129 l4 -128 -194 0 c-173 0 -193 2 -188 16 3 9 6 67 6
129 0 110 1 114 23 117 21 3 340 -2 344 -5z m1297 -18 c3 -17 6 -78 6 -135 l0
-104 -179 0 c-134 0 -180 3 -183 13 -3 6 -6 67 -7 135 l-3 122 180 0 180 0 6
-31z m973 17 c1 0 4 -58 7 -128 l7 -128 -194 0 -193 0 3 63 c2 34 4 91 6 127
2 59 4 65 27 70 20 5 331 2 337 -4z m1384 -63 c0 -43 2 -104 3 -135 l3 -58
-184 0 -183 0 0 135 0 135 180 0 180 0 1 -77z m507 71 l61 -7 3 -86 c2 -47 2
-105 0 -128 l-3 -43 -271 0 -270 0 6 23 c3 12 6 73 6 135 l0 112 204 0 c111 0
230 -3 264 -6z m469 -8 c1 -1 3 -58 4 -126 l1 -125 -192 -3 -193 -2 7 37 c3
21 6 79 6 130 0 87 1 92 23 95 21 3 340 -2 344 -6z m-8868 -122 c25 -5 32 -12
37 -40 3 -19 3 -45 0 -59 -6 -25 -9 -26 -69 -23 l-61 3 1 55 c1 30 2 58 2 63
1 9 47 9 90 1z m4851 -54 l0 -60 -75 0 -75 0 0 60 0 60 75 0 75 0 0 -60z
m-4630 -10 l0 -60 -74 0 -74 0 1 60 2 60 72 0 73 0 0 -60z"/>
<path d="M3048 2953 c-24 -3 -42 -11 -48 -23 -5 -10 -11 -107 -12 -217 l-2
-198 69 -3 c37 -2 72 1 78 7 6 6 7 90 2 225 -8 243 2 218 -87 209z"/>
<path d="M7693 2953 c-35 -3 -44 -9 -49 -27 -6 -27 -9 -154 -5 -241 2 -33 0
-86 -4 -118 l-7 -58 78 3 79 3 2 50 c1 28 -1 128 -4 223 -7 194 4 173 -90 165z"/>
<path d="M4057 2262 l-38 -3 7 -552 c3 -304 8 -554 10 -556 7 -8 412 14 421
22 4 5 9 251 10 548 l3 539 -118 1 c-64 0 -148 1 -187 2 -38 1 -87 1 -108 -1z
m372 -47 c3 -4 6 -237 7 -518 l1 -512 -184 0 -183 0 -1 240 c0 132 -2 365 -5
517 l-4 277 37 3 c62 5 325 -1 332 -7z"/>
<path d="M6330 2260 l-35 -5 0 -265 c1 -146 2 -395 3 -554 l2 -288 197 7 c108
4 204 8 212 10 10 1 18 17 22 41 9 50 13 379 10 757 l-2 297 -117 1 c-64 0
-148 1 -187 2 -38 1 -86 0 -105 -3z m369 -45 c3 -4 7 -236 8 -516 l3 -509
-133 -1 c-72 0 -154 -2 -180 -5 -32 -2 -49 1 -52 9 -2 6 -6 240 -8 519 l-4
507 81 3 c119 4 277 0 285 -7z"/>
<path d="M757 1002 l-747 -2 0 -203 0 -202 4328 1 c2380 1 4796 2 5370 3
l1042 1 -1 78 c-1 42 -4 118 -8 167 -7 85 -8 82 -9 -65 l-2 -155 -5336 2
c-2935 1 -5340 5 -5344 10 -5 4 -6 81 -3 170 l6 161 2566 1 c5961 2 8153 11
8061 33 -30 7 -7840 8 -9923 0z"/>
<path d="M2994 347 c-2 -7 -3 -87 -2 -177 l3 -165 85 0 85 0 3 28 c3 27 3 27
-57 27 l-61 0 0 55 0 55 59 0 c57 0 58 1 57 28 -1 26 -3 27 -58 30 l-58 3 0
34 0 35 61 0 c60 0 60 0 57 28 -3 27 -3 27 -86 29 -58 1 -84 -2 -88 -10z"/>
<path d="M3353 352 c-31 -5 -63 -48 -63 -85 0 -23 13 -43 60 -90 33 -33 60
-68 60 -77 0 -39 -52 -54 -70 -20 -11 21 -60 29 -60 10 0 -27 32 -69 61 -79
23 -8 38 -7 64 3 40 17 55 42 55 93 0 33 -7 44 -60 95 -33 31 -60 61 -60 66 0
5 7 15 15 22 13 10 19 10 33 -4 25 -22 62 -21 62 2 0 19 -35 56 -60 63 -8 3
-25 3 -37 1z"/>
<path d="M3580 329 c0 -26 3 -29 35 -29 l34 0 3 -147 3 -148 25 0 c29 0 27
-11 29 160 l1 135 35 0 c32 0 35 2 35 30 l0 29 -100 -1 -100 -1 0 -28z"/>
<path d="M3987 353 c-8 -12 -87 -322 -87 -339 0 -8 10 -14 24 -14 20 0 25 7
35 45 11 45 12 45 55 45 43 0 43 0 52 -42 8 -38 13 -43 37 -44 15 -1 27 1 27
3 0 8 -71 289 -81 321 -8 24 -16 32 -34 32 -13 0 -26 -3 -28 -7z"/>
<path d="M4250 182 l0 -181 72 4 c66 3 75 6 100 34 39 43 36 126 -5 152 -5 4
-5 14 2 27 18 33 13 79 -11 107 -19 22 -34 27 -90 32 l-68 6 0 -181z"/>
<path d="M4570 181 l0 -179 83 2 c82 1 82 1 85 29 3 27 3 27 -57 27 l-61 0 0
150 0 150 -25 0 -25 0 0 -179z"/>
<path d="M4850 180 l0 -180 25 0 25 0 0 180 0 180 -25 0 -25 0 0 -180z"/>
<path d="M5090 353 c-37 -13 -60 -47 -60 -86 0 -35 6 -45 60 -94 33 -31 60
-63 60 -72 0 -41 -51 -55 -72 -21 -15 24 -58 27 -58 4 0 -29 21 -56 56 -70 29
-12 39 -12 68 0 41 17 56 42 56 92 0 34 -7 45 -60 94 -64 59 -69 70 -45 90 13
10 19 10 33 -4 23 -20 62 -21 62 -2 0 36 -65 81 -100 69z"/>
<path d="M5320 181 l0 -178 25 0 c24 0 25 1 25 73 l0 74 45 0 44 0 3 -72 c3
-70 4 -73 28 -73 l25 0 0 175 0 175 -25 0 c-24 0 -25 -3 -28 -72 l-3 -73 -44
0 -45 0 0 75 c0 73 -1 75 -25 75 l-25 0 0 -179z"/>
<path d="M5642 352 c-18 -6 -17 -338 1 -345 7 -2 45 -5 85 -5 l72 0 0 29 c0
29 -1 29 -58 29 -57 0 -58 0 -56 27 1 16 3 40 3 56 1 26 3 27 56 27 55 0 55 0
55 31 l0 30 -57 -3 c-62 -3 -59 -7 -54 57 1 11 14 15 56 15 54 0 55 1 55 29
l0 29 -73 -1 c-39 0 -78 -2 -85 -5z"/>
<path d="M5920 178 l0 -181 42 7 c56 9 98 34 125 75 76 113 9 259 -124 274
l-43 5 0 -180z m107 89 c34 -30 47 -80 33 -122 -11 -32 -61 -85 -81 -85 -5 0
-9 53 -9 120 0 109 1 119 18 113 9 -3 27 -15 39 -26z"/>
<path d="M6685 346 c-38 -17 -61 -43 -70 -78 -6 -25 -5 -28 19 -28 19 0 30 8
38 25 22 49 89 41 103 -12 7 -30 -14 -54 -86 -98 -46 -28 -71 -67 -73 -112
l-1 -38 108 -3 107 -3 0 31 0 30 -80 0 c-94 0 -98 12 -17 58 67 38 88 62 93
109 10 81 -71 150 -141 119z"/>
<path d="M7033 349 c-44 -13 -80 -60 -89 -115 -9 -59 1 -140 21 -170 51 -78
160 -77 212 3 23 35 25 174 3 217 -28 55 -88 81 -147 65z m82 -74 c22 -21 25
-33 25 -99 0 -69 -2 -76 -26 -95 -34 -27 -62 -27 -91 1 -20 19 -23 31 -23 99
0 72 2 79 26 98 35 27 59 26 89 -4z"/>
<path d="M7345 320 c-38 -39 -38 -40 -20 -60 17 -19 19 -19 37 -4 17 17 18 13
18 -117 l0 -135 25 0 25 0 0 178 0 178 -23 0 c-14 0 -39 -16 -62 -40z"/>
<path d="M7640 353 c-60 -19 -90 -57 -90 -113 0 -71 49 -115 119 -108 36 3 41
1 41 -18 0 -44 -63 -71 -90 -39 -14 17 -46 20 -55 5 -11 -17 16 -51 50 -66 44
-18 99 -1 129 39 26 36 34 162 14 221 -18 53 -77 93 -118 79z"/>
</g>
</svg>
