<svg width="93" height="20" viewBox="0 0 93 20" fill="none" xmlns="http://www.w3.org/2000/svg">
<path d="M12.8454 11.288H10.3494L9.55741 14H8.62141L11.0934 5.6H12.0894L14.6454 14H13.6734L12.8454 11.288ZM10.5774 10.4H12.6294L11.5854 6.992L10.5774 10.4ZM21.2735 8.18L19.3175 14H18.5015L16.5695 8.18V14H15.7055V5.6H16.5695L18.9095 12.428L21.2735 5.6H22.1375V14H21.2735V8.18ZM24.0376 5.6H26.6296C27.2856 5.6 27.8096 5.772 28.2016 6.116C28.6016 6.46 28.8016 6.976 28.8016 7.664C28.8016 7.976 28.7496 8.276 28.6456 8.564C28.5416 8.844 28.3296 9.092 28.0096 9.308L27.9976 9.332V9.344C28.3496 9.504 28.6416 9.764 28.8736 10.124C29.1136 10.476 29.2336 10.936 29.2336 11.504C29.2336 12.184 29.0416 12.772 28.6576 13.268C28.2736 13.756 27.6416 14 26.7616 14H24.0376V5.6ZM26.4496 9.044C26.8976 9.044 27.2416 8.936 27.4816 8.72C27.7296 8.504 27.8536 8.172 27.8536 7.724C27.8536 7.244 27.7256 6.912 27.4696 6.728C27.2136 6.536 26.8656 6.44 26.4256 6.44H24.9016V9.044H26.4496ZM26.5696 13.196C27.1056 13.196 27.5216 13.072 27.8176 12.824C28.1216 12.576 28.2736 12.124 28.2736 11.468C28.2736 10.94 28.1216 10.544 27.8176 10.28C27.5216 10.016 27.1616 9.884 26.7376 9.884H24.9016V13.196H26.5696ZM30.5883 5.6H34.5963V6.428H31.4523V9.044H33.5523L33.2763 9.884H31.4523V13.22H34.5723V14H30.5883V5.6ZM39.5505 11.216C39.4065 11.232 39.2785 11.24 39.1665 11.24H37.0305V14H36.1665V5.6H39.0825C39.8505 5.6 40.4225 5.844 40.7985 6.332C41.1825 6.82 41.3745 7.46 41.3745 8.252C41.3745 8.852 41.3105 9.384 41.1825 9.848C41.0625 10.304 40.7865 10.668 40.3545 10.94L41.3865 14H40.4985L39.5505 11.216ZM39.0585 10.4C39.4905 10.4 39.8105 10.288 40.0185 10.064C40.2265 9.832 40.3545 9.572 40.4025 9.284C40.4585 8.988 40.4865 8.656 40.4865 8.288C40.4865 7.056 39.9745 6.44 38.9505 6.44H37.0305V10.4H39.0585ZM42.9399 5.6H43.8039V13.22H47.2719V14H42.9399V5.6ZM49.5003 13.52C49.7323 13.448 49.9203 13.316 50.0643 13.124C50.2083 12.924 50.2803 12.592 50.2803 12.128V10.736C50.0883 10.896 49.8323 11.02 49.5123 11.108C49.2003 11.196 48.8883 11.24 48.5763 11.24C47.7363 11.24 47.0683 11.024 46.5723 10.592C46.0763 10.152 45.8283 9.524 45.8283 8.708V5.6H46.7043V8.756C46.7043 9.292 46.8723 9.7 47.2083 9.98C47.5443 10.252 48.0003 10.388 48.5763 10.388C49.0163 10.388 49.3883 10.304 49.6923 10.136C50.0043 9.96 50.2003 9.716 50.2803 9.404V5.6H51.1562V12.128C51.1562 13.344 50.6843 14.012 49.7403 14.132L49.5003 13.52ZM56.1001 5.6H56.9641V13.22H60.4321V14H56.1001V5.6ZM66.2452 11.78C66.2452 12.588 65.9972 13.184 65.5012 13.568C65.0132 13.944 64.4252 14.132 63.7372 14.132C63.3052 14.132 62.8972 14.056 62.5132 13.904C62.1292 13.744 61.8132 13.488 61.5652 13.136C61.3252 12.784 61.2052 12.332 61.2052 11.78V7.916C61.2052 7.092 61.4292 6.468 61.8772 6.044C62.3332 5.62 62.9572 5.408 63.7492 5.408C64.5412 5.408 65.1532 5.632 65.5852 6.08C66.0252 6.528 66.2452 7.144 66.2452 7.928V11.78ZM65.3812 7.976C65.3812 7.424 65.2372 7.004 64.9492 6.716C64.6692 6.428 64.2612 6.284 63.7252 6.284C63.1892 6.284 62.7772 6.428 62.4892 6.716C62.2092 6.996 62.0692 7.416 62.0692 7.976V11.708C62.0692 12.22 62.2212 12.612 62.5252 12.884C62.8292 13.148 63.2292 13.28 63.7252 13.28C64.2212 13.28 64.6212 13.148 64.9252 12.884C65.2292 12.612 65.3812 12.212 65.3812 11.684V7.976ZM72.1592 13.724C71.4472 13.988 70.7832 14.12 70.1672 14.12C69.4712 14.12 68.9072 13.936 68.4752 13.568C68.0432 13.2 67.8272 12.612 67.8272 11.804V7.952C67.8272 7.344 67.9112 6.884 68.0792 6.572C68.2552 6.26 68.5192 5.996 68.8712 5.78C69.2232 5.58 69.6552 5.48 70.1672 5.48C70.7912 5.48 71.3552 5.612 71.8592 5.876L71.6072 6.56C71.1752 6.4 70.7552 6.32 70.3472 6.32C69.9072 6.32 69.5192 6.432 69.1832 6.656C68.8552 6.88 68.6912 7.276 68.6912 7.844V11.78C68.6912 12.284 68.8312 12.66 69.1112 12.908C69.3912 13.156 69.7872 13.28 70.2992 13.28C70.7952 13.28 71.3592 13.172 71.9912 12.956L72.1592 13.724ZM76.3493 11.288H73.8533L73.0613 14H72.1253L74.5973 5.6H75.5933L78.1493 14H77.1773L76.3493 11.288ZM74.0813 10.4H76.1333L75.0893 6.992L74.0813 10.4ZM79.2094 5.6H80.0734V13.22H83.5414V14H79.2094V5.6Z" fill="black"/>
<path d="M0.1875 1H92.375" stroke="black"/>
<path d="M0.123291 19H92.3108" stroke="black"/>
</svg>
